<?xml version="1.0" encoding="UTF-8" standalone="no"?><!-- Generator: Gravit.io --><svg xmlns="http://www.w3.org/2000/svg" xmlns:xlink="http://www.w3.org/1999/xlink" style="isolation:isolate" viewBox="0 0 3600 3600" width="3600pt" height="3600pt"><defs><clipPath id="_clipPath_Z17Ei2AbqVwiIVR6mR4Ie3tRUf5ulAQK"><rect width="3600" height="3600"/></clipPath></defs><g clip-path="url(#_clipPath_Z17Ei2AbqVwiIVR6mR4Ie3tRUf5ulAQK)"><g style="isolation:isolate"><rect x="0" y="0" width="3600" height="3600" transform="matrix(1,0,0,1,0,0)" fill="rgb(255,255,255)"/></g><g style="isolation:isolate"><path d=" M 2866.667 3000 L 733.333 3000 L 733.333 3000 L 733.333 3000 L 733.333 3000 C 659.745 3000 600 2940.255 600 2866.667 L 600 2866.667 L 600 2866.667 L 600 2866.667 L 600 2866.667 L 600 2866.667 L 600 733.333 L 600 733.333 L 600 733.333 L 600 733.333 L 600 733.333 C 600 659.745 659.745 600 733.333 600 L 733.333 600 L 733.333 600 L 733.333 600 L 2866.667 600 L 2866.667 600 L 2866.667 600 L 2866.667 600 C 2940.255 600 3000 659.745 3000 733.333 L 3000 733.333 L 3000 733.333 L 3000 1233.333 C 3000 1306.922 2940.255 1366.667 2866.667 1366.667 L 2866.667 1366.667 C 2793.078 1366.667 2733.333 1306.922 2733.333 1233.333 L 2733.333 866.667 L 866.667 866.667 L 866.667 2733.333 L 2733.333 2733.333 L 2733.333 2366.667 C 2733.333 2293.078 2793.078 2233.333 2866.667 2233.333 L 2866.667 2233.333 C 2940.255 2233.333 3000 2293.078 3000 2366.667 L 3000 2866.667 L 3000 2866.667 C 3000 2940.255 2940.255 3000 2866.667 3000 L 2866.667 3000 L 2866.667 3000 Z " fill-rule="evenodd" fill="rgb(0,150,136)"/><path d=" M 1250.33 2411.609 L 2280.651 2135.535 C 2351.732 2116.489 2424.904 2158.735 2443.951 2229.816 L 2443.951 2229.816 C 2462.997 2300.898 2420.751 2374.07 2349.67 2393.116 L 1319.349 2669.189 C 1248.268 2688.235 1175.096 2645.99 1156.049 2574.908 L 1156.049 2574.908 C 1137.003 2503.827 1179.249 2430.655 1250.33 2411.609 Z " fill="rgb(0,150,136)"/><path d=" M 1250.33 1206.876 L 2280.651 930.802 C 2351.732 911.756 2424.904 954.002 2443.951 1025.083 L 2443.951 1025.083 C 2462.997 1096.164 2420.751 1169.336 2349.67 1188.382 L 1319.349 1464.456 C 1248.268 1483.502 1175.096 1441.256 1156.049 1370.175 L 1156.049 1370.175 C 1137.003 1299.094 1179.249 1225.922 1250.33 1206.876 Z " fill="rgb(0,150,136)"/><path d=" M 1250.33 1809.247 L 2280.651 1533.173 C 2351.732 1514.127 2424.904 1556.373 2443.951 1627.454 L 2443.951 1627.454 C 2462.997 1698.535 2420.751 1771.707 2349.67 1790.753 L 1319.349 2066.827 C 1248.268 2085.873 1175.096 2043.627 1156.049 1972.546 L 1156.049 1972.546 C 1137.003 1901.465 1179.249 1828.293 1250.33 1809.247 Z " fill="rgb(0,150,136)"/></g></g></svg>