<?xml version="1.0" encoding="UTF-8" standalone="no"?><!-- Generator: Gravit.io --><svg xmlns="http://www.w3.org/2000/svg" xmlns:xlink="http://www.w3.org/1999/xlink" style="isolation:isolate" viewBox="0 0 3600 3600" width="3600pt" height="3600pt">
<style>
  path {
    fill: #009688; /*ライトモードでの色*/
  }
  @media (prefers-color-scheme: dark) {
    path {
      <!-- fill: #A4C2F3; /*ダークモードでの色*/ -->
      fill: white; /*ダークモードでの色*/
    }
  }
</style>
<defs><clipPath id="_clipPath_PWQjiQLyQKkRaIR5cKIHiwJOiGnUebpx"><rect width="3600" height="3600"/></clipPath></defs><g clip-path="url(#_clipPath_PWQjiQLyQKkRaIR5cKIHiwJOiGnUebpx)"><path d=" M 975.496 1813.87 L 2520.977 1399.76 C 2627.599 1371.19 2737.357 1434.559 2765.926 1541.181 L 2765.926 1541.181 C 2794.495 1647.803 2731.126 1757.561 2624.504 1786.13 L 1079.023 2200.24 C 972.401 2228.81 862.643 2165.441 834.074 2058.819 L 834.074 2058.819 C 805.505 1952.197 868.874 1842.439 975.496 1813.87 Z " fill="rgb(0,150,136)"/><path d=" M 975.496 910.314 L 2520.977 496.203 C 2627.599 467.634 2737.357 531.003 2765.926 637.625 L 2765.926 637.625 C 2794.495 744.246 2731.126 854.004 2624.504 882.574 L 1079.023 1296.684 C 972.401 1325.253 862.643 1261.884 834.074 1155.263 L 834.074 1155.263 C 805.505 1048.641 868.874 938.883 975.496 910.314 Z " fill="rgb(0,150,136)"/><path d=" M 975.496 2717.414 L 2520.977 2303.303 C 2627.599 2274.734 2737.357 2338.103 2765.926 2444.725 L 2765.926 2444.725 C 2794.495 2551.346 2731.126 2661.104 2624.504 2689.674 L 1079.023 3103.784 C 972.401 3132.353 862.643 3068.984 834.074 2962.363 L 834.074 2962.363 C 805.505 2855.741 868.874 2745.983 975.496 2717.414 Z " fill="rgb(0,150,136)"/><path d=" M 3400 3600 L 200 3600 L 200 3600 L 200 3600 L 200 3600 C 89.617 3600 0 3510.383 0 3400 L 0 3400 L 0 3400 L 0 3400 L 0 200 L 0 200 L 0 200 L 0 200 L 0 200 C 0 89.617 89.617 0 200 0 L 200 0 L 200 0 L 3400 0 L 3400 0 L 3400 0 L 3400 0 C 3510.383 0 3600 89.617 3600 200 L 3600 200 L 3600 200 L 3600 950 C 3600 1060.383 3510.383 1150 3400 1150 L 3400 1150 C 3289.617 1150 3200 1060.383 3200 950 L 3200 400 L 400 400 L 400 3200 L 3200 3200 L 3200 2650 C 3200 2539.617 3289.617 2450 3400 2450 L 3400 2450 C 3510.383 2450 3600 2539.617 3600 2650 L 3600 3400 C 3600 3510.383 3510.383 3600 3400 3600 L 3400 3600 L 3400 3600 Z " fill-rule="evenodd" fill="rgb(0,150,136)"/></g></svg>